<svg width="64" height="65" viewBox="0 0 64 65" fill="none" xmlns="http://www.w3.org/2000/svg">
<path d="M22.399 46.3748L21.0508 1.02348L22.399 0.25L51.3938 16.9898V63.1146L50.0456 63.8952L22.399 46.3748Z" fill="#05CC79" stroke="#1C1C1C" stroke-width="0.5" stroke-linecap="round" stroke-linejoin="round"/>
<path d="M21.0508 47.1554V1.02344L50.0456 17.7703V63.8951L21.0508 47.1554Z" fill="white" stroke="#1C1C1C" stroke-width="0.5" stroke-linecap="round" stroke-linejoin="round"/>
<path d="M22.7031 46.1978V3.89062L48.3911 18.7215V61.0287L22.7031 46.1978Z" fill="white" stroke="#1C1C1C" stroke-width="0.5" stroke-linecap="round" stroke-linejoin="round"/>
<path d="M40.9678 15.5214L28.734 8.45365L27.918 2.5L41.7838 10.4973L40.9678 15.5214Z" fill="white" stroke="#1C1C1C" stroke-width="0.5" stroke-linecap="round" stroke-linejoin="round"/>
<path d="M42.7223 25.6119L28.3668 17.3236C27.4443 16.7914 26.6992 15.3651 26.6992 14.1445C26.6992 12.9169 27.4443 12.3563 28.3668 12.8885L42.7223 21.1768C43.6448 21.709 44.3899 23.1353 44.3899 24.3559C44.3899 25.5835 43.6448 26.1441 42.7223 25.6119Z" fill="#EEEEEE"/>
<path d="M33.2747 27.2938L26.1218 23.1638C25.6534 22.8942 25.2773 22.1704 25.2773 21.553C25.2773 20.9285 25.6534 20.6447 26.1218 20.9143L33.2747 25.0443C33.743 25.3139 34.1191 26.0377 34.1191 26.6551C34.1191 27.2796 33.743 27.5634 33.2747 27.2938Z" fill="#EEEEEE"/>
<path d="M36.8298 33.1649L26.1218 26.9841C25.6534 26.7145 25.2773 25.9907 25.2773 25.3733C25.2773 24.7488 25.6534 24.465 26.1218 24.7347L36.8298 30.9154C37.2982 31.185 37.6743 31.9088 37.6743 32.5262C37.6743 33.1507 37.2982 33.4345 36.8298 33.1649Z" fill="#EEEEEE"/>
<path d="M36.8298 36.993L26.1218 30.8123C25.6534 30.5426 25.2773 29.8188 25.2773 29.2014C25.2773 28.577 25.6534 28.2931 26.1218 28.5628L36.8298 34.7435C37.2982 35.0132 37.6743 35.737 37.6743 36.3543C37.6743 36.9788 37.2982 37.2626 36.8298 36.993Z" fill="#EEEEEE"/>
<path d="M36.8298 40.8055L26.1218 34.6248C25.6534 34.3551 25.2773 33.6313 25.2773 33.0139C25.2773 32.3895 25.6534 32.1056 26.1218 32.3753L36.8298 38.556C37.2982 38.8257 37.6743 39.5495 37.6743 40.1668C37.6743 40.7913 37.2982 41.0751 36.8298 40.8055Z" fill="#EEEEEE"/>
<path d="M44.6377 33.8502L42.4733 32.6013C42.005 32.3317 41.6289 31.6079 41.6289 30.9905C41.6289 30.366 42.005 30.0822 42.4733 30.3518L44.6377 31.6008C45.106 31.8704 45.4821 32.5942 45.4821 33.2116C45.4821 33.836 45.106 34.1199 44.6377 33.8502Z" fill="#EEEEEE"/>
<path d="M44.6377 37.6705L42.4733 36.4216C42.005 36.152 41.6289 35.4282 41.6289 34.8108C41.6289 34.1863 42.005 33.9025 42.4733 34.1722L44.6377 35.4211C45.106 35.6907 45.4821 36.4145 45.4821 37.0319C45.4821 37.6564 45.106 37.9402 44.6377 37.6705Z" fill="#EEEEEE"/>
<path d="M44.6377 41.4909L42.4733 40.2419C42.005 39.9723 41.6289 39.2485 41.6289 38.6311C41.6289 38.0067 42.005 37.7228 42.4733 37.9925L44.6377 39.2414C45.106 39.511 45.4821 40.2348 45.4821 40.8522C45.4821 41.4767 45.106 41.7605 44.6377 41.4909Z" fill="#EEEEEE"/>
<path d="M44.6377 45.3112L42.4733 44.0623C42.005 43.7926 41.6289 43.0688 41.6289 42.4514C41.6289 41.827 42.005 41.5431 42.4733 41.8128L44.6377 43.0617C45.106 43.3314 45.4821 44.0552 45.4821 44.6725C45.4821 45.297 45.106 45.5808 44.6377 45.3112Z" fill="#EEEEEE"/>
<path d="M36.8298 44.8367L26.1218 38.656C25.6534 38.3863 25.2773 37.6625 25.2773 37.0452C25.2773 36.4207 25.6534 36.1369 26.1218 36.4065L36.8298 42.5873C37.2982 42.8569 37.6743 43.5807 37.6743 44.1981C37.6743 44.8225 37.2982 45.1064 36.8298 44.8367Z" fill="#EEEEEE"/>
<path d="M44.6377 49.3424L42.4733 48.0935C42.005 47.8238 41.6289 47.1 41.6289 46.4827C41.6289 45.8582 42.005 45.5744 42.4733 45.844L44.6377 47.093C45.106 47.3626 45.4821 48.0864 45.4821 48.7038C45.4821 49.3282 45.106 49.6121 44.6377 49.3424Z" fill="#EEEEEE"/>
<path d="M50.043 17.7649L51.3912 16.9844" stroke="#1C1C1C" stroke-width="0.5" stroke-linecap="round" stroke-linejoin="round"/>
<path d="M28.7529 44.5264L6.42379 31.6341C5.31294 30.9889 4.40968 29.2666 4.40968 27.7855V17.098C4.40968 15.6169 5.31294 14.9324 6.42379 15.572L28.7529 28.4643C29.8638 29.1095 30.7671 30.8318 30.7671 32.3129V43.0004C30.7671 44.4815 29.8638 45.1659 28.7529 44.5264Z" fill="white" stroke="#1C1C1C" stroke-width="0.5" stroke-linecap="round" stroke-linejoin="round"/>
<path d="M10.1502 26.4854L8.18097 25.3521C7.4404 24.9258 6.8401 23.7757 6.8401 22.7827V21.0266C6.8401 20.0392 7.4404 19.5848 8.18097 20.0112L10.1502 21.1445C10.8908 21.5708 11.4911 22.7209 11.4911 23.7139V25.4699C11.4911 26.4573 10.8908 26.9118 10.1502 26.4854Z" fill="#FFB605"/>
<path opacity="0.64" d="M27.6208 33.1532L14.9358 25.8263C14.5375 25.5962 14.2177 24.9791 14.2177 24.4461C14.2177 23.9132 14.5431 23.6719 14.9358 23.902L27.6208 31.2289C28.0192 31.4589 28.339 32.0761 28.339 32.609C28.339 33.142 28.0136 33.3832 27.6208 33.1532Z" fill="#ACACAC"/>
<path opacity="0.64" d="M26.8236 36.324L14.9297 29.4571C14.5313 29.2271 14.2116 28.61 14.2116 28.077C14.2116 27.544 14.537 27.3028 14.9297 27.5328L26.8236 34.3997C27.2219 34.6298 27.5417 35.2469 27.5417 35.7798C27.5417 36.3128 27.2163 36.5541 26.8236 36.324Z" fill="#ACACAC"/>
<path opacity="0.64" d="M21.0281 36.6305L14.9297 33.1129C14.5313 32.8829 14.2116 32.2657 14.2116 31.7328C14.2116 31.1998 14.537 30.9586 14.9297 31.1886L21.0281 34.7062C21.4265 34.9362 21.7462 35.5533 21.7462 36.0863C21.7462 36.6193 21.4208 36.8605 21.0281 36.6305Z" fill="#ACACAC"/>
<path d="M14.719 31.5975L29.3357 40.0337C32.5892 41.9145 35.2319 46.0751 35.2319 49.3347C35.2319 50.7801 34.7119 51.8021 33.8471 52.3342C32.7646 52.9934 31.7063 53.5679 31.7063 53.5679L14.719 43.3901C11.4654 41.5093 7.90954 32.42 7.90954 32.42C7.90954 32.42 9.33674 31.6398 10.1834 31.1077C11.2659 30.4303 12.8926 30.5453 14.719 31.5975Z" fill="#05CC79" stroke="#1C1C1C" stroke-width="0.5" stroke-linecap="round" stroke-linejoin="round"/>
<path d="M12.5779 32.8298L27.1946 41.266C30.4482 43.1468 33.0909 47.3075 33.0909 50.567C33.0909 53.8206 30.4482 54.9394 27.1946 53.0586L12.5779 44.6224C9.32439 42.7416 6.68165 38.581 6.68165 35.3214C6.68165 32.0679 9.32439 30.9491 12.5779 32.8298Z" fill="#05CC79" stroke="#1C1C1C" stroke-width="0.5" stroke-linecap="round" stroke-linejoin="round"/>
<path d="M10.7821 37.2234L10.7881 38.6687L29.0091 49.0522L29.0031 47.6069L10.7821 37.2234Z" fill="#1C1C1C"/>
<path d="M25.2838 49.824L26.5235 50.5316C26.5175 48.929 27.6302 48.2577 29.009 49.0499V47.6046C26.9408 46.4253 25.2717 47.4232 25.2838 49.824Z" fill="#1C1C1C"/>
<path d="M25.2474 42.5559C25.2595 44.9567 26.9467 47.8716 29.0089 49.0509V47.6055C27.624 46.8194 26.4992 44.8721 26.4932 43.2695L25.2534 42.5619L25.2474 42.5559Z" fill="#1C1C1C"/>
</svg>
