<svg width="64" height="64" viewBox="0 0 64 64" fill="none" xmlns="http://www.w3.org/2000/svg">
<path d="M11.7336 18.9296L43.3245 0.688999C43.9866 0.308216 44.5208 0.711728 44.5208 1.59548V21.5837C44.5208 22.4647 43.9838 23.4905 43.3245 23.8713L11.7336 42.1119C11.0715 42.4927 10.5373 42.0892 10.5373 41.2054V21.2172C10.5373 20.3362 11.0744 19.3104 11.7336 18.9296Z" fill="white" stroke="#1C1C1C" stroke-width="0.230787" stroke-linecap="round" stroke-linejoin="round"/>
<path d="M11.9215 30.7282C11.9215 30.7282 19.0456 32.5781 22.9358 30.3303C26.6357 28.1934 27.6729 20.7255 30.8073 18.796C33.6376 17.0541 33.6205 18.4039 35.675 17.2189C37.6216 16.0936 39.355 10.1971 40.3411 7.83289" stroke="#FF5F3B" stroke-width="0.230787" stroke-linecap="round" stroke-linejoin="round"/>
<path d="M11.8669 26.2395V38.6945" stroke="#E8EBF1" stroke-width="0.230787"/>
<path d="M43.4846 20.4506L11.8653 38.7054" stroke="#E8EBF1" stroke-width="0.230787"/>
<path d="M12.0699 39.5325L13.738 38.5692C13.8516 38.5039 13.9426 38.5721 13.9426 38.7227C13.9426 38.8733 13.8516 39.0466 13.738 39.112L12.0699 40.0753C11.9562 40.1407 11.8653 40.0725 11.8653 39.9219C11.8653 39.7712 11.9562 39.5979 12.0699 39.5325Z" fill="#E8EBF1"/>
<path opacity="0.7" d="M16.9899 36.694L18.658 35.7307C18.7717 35.6654 18.8626 35.7336 18.8626 35.8842C18.8626 36.0348 18.7717 36.2081 18.658 36.2735L16.9899 37.2368C16.8763 37.3022 16.7853 37.234 16.7853 37.0834C16.7853 36.9327 16.8763 36.7594 16.9899 36.694Z" fill="#E8EBF1"/>
<path opacity="0.6" d="M21.9142 33.8493L23.5823 32.886C23.696 32.8206 23.7869 32.8888 23.7869 33.0394C23.7869 33.1901 23.696 33.3634 23.5823 33.4288L21.9142 34.3921C21.8006 34.4574 21.7096 34.3892 21.7096 34.2386C21.7096 34.088 21.8006 33.9147 21.9142 33.8493Z" fill="#E8EBF1"/>
<path opacity="0.5" d="M26.839 31.005L28.507 30.0416C28.6207 29.9763 28.7116 30.0445 28.7116 30.1951C28.7116 30.3457 28.6207 30.519 28.507 30.5844L26.839 31.5477C26.7253 31.6131 26.6344 31.5449 26.6344 31.3943C26.6344 31.2437 26.7253 31.0703 26.839 31.005Z" fill="#E8EBF1"/>
<path opacity="0.4" d="M31.7637 28.1638L33.4318 27.2005C33.5454 27.1351 33.6364 27.2033 33.6364 27.3539C33.6364 27.5045 33.5454 27.6779 33.4318 27.7432L31.7637 28.7065C31.65 28.7719 31.5591 28.7037 31.5591 28.5531C31.5591 28.4025 31.65 28.2291 31.7637 28.1638Z" fill="#E8EBF1"/>
<path d="M36.6895 25.3191L38.3575 24.3557C38.4712 24.2904 38.5621 24.3586 38.5621 24.5092C38.5621 24.6598 38.4712 24.8331 38.3575 24.8985L36.6895 25.8618C36.5758 25.9272 36.4849 25.859 36.4849 25.7084C36.4849 25.5577 36.5758 25.3844 36.6895 25.3191Z" fill="#FF5F3B"/>
<path opacity="0.2" d="M41.6141 22.4779L43.2821 21.5145C43.3958 21.4492 43.4867 21.5174 43.4867 21.668C43.4867 21.8186 43.3958 21.9919 43.2821 22.0573L41.6141 23.0206C41.5004 23.086 41.4095 23.0178 41.4095 22.8672C41.4095 22.7166 41.5004 22.5432 41.6141 22.4779Z" fill="#E8EBF1"/>
<path opacity="0.64" d="M42.708 4.12187L39.0792 6.21617C38.7921 6.38098 38.5591 6.2048 38.5591 5.82402C38.5591 5.44323 38.7921 4.9971 39.0792 4.83228L42.708 2.73797C42.995 2.57316 43.228 2.74934 43.228 3.13012C43.228 3.51091 42.995 3.95705 42.708 4.12187Z" fill="#E8EBF1"/>
<path d="M7.82392 17.1995L23.6549 8.06074C24.5585 7.53787 25.2917 8.092 25.2917 9.29686V13.0791C25.2917 14.284 24.5585 15.6849 23.6549 16.2078L7.82392 25.3466C6.92027 25.8694 6.18712 25.3153 6.18712 24.1104V20.3282C6.18712 19.1233 6.92027 17.7224 7.82392 17.1995Z" fill="white" stroke="#1C1C1C" stroke-width="0.230787" stroke-linecap="round" stroke-linejoin="round"/>
<path d="M8.46615 18.5049L10.2678 17.4649C10.7651 17.1779 11.1686 17.5189 11.1686 18.2265V20.4685C11.1686 21.1761 10.7651 21.9831 10.2678 22.2701L8.46615 23.3102C7.96886 23.5972 7.56534 23.2562 7.56534 22.5486V20.3066C7.56534 19.599 7.96886 18.792 8.46615 18.5049Z" fill="white" stroke="#1C1C1C" stroke-width="0.230787" stroke-linecap="round" stroke-linejoin="round"/>
<path fill-rule="evenodd" clip-rule="evenodd" d="M25.2796 8.64588C24.9187 8.85332 24.626 9.41597 24.626 9.89621V10.402L23.9071 11.7745C23.8218 11.9365 23.8218 12.1212 23.9071 12.1866L24.626 12.7293V13.0959C24.626 13.579 24.9187 13.8007 25.2796 13.5904L28.0474 11.9905C28.4083 11.7831 28.701 11.2204 28.701 10.7402V7.53763C28.701 7.05455 28.4083 6.8329 28.0474 7.04318L25.2796 8.64303V8.64588Z" fill="#FF5F3B"/>
<path d="M26.6503 11.8642C26.5593 11.9154 26.4854 11.8614 26.4854 11.7392V9.15896C26.4854 9.03961 26.5593 8.89753 26.6503 8.84638C26.7412 8.79523 26.8151 8.84922 26.8151 8.97141V11.5516C26.8151 11.671 26.7412 11.8131 26.6503 11.8642Z" fill="white"/>
<path d="M27.3204 9.74491C27.2777 9.77048 27.238 9.77332 27.2039 9.74775L26.6469 9.32718L26.0899 10.39C26.0246 10.5122 25.9223 10.5718 25.8597 10.5235C25.7944 10.4752 25.7944 10.336 25.8597 10.2138L26.5332 8.92935C26.5957 8.81284 26.7037 8.75032 26.7634 8.79579L27.4369 9.30445C27.5022 9.35276 27.5022 9.492 27.4369 9.61419C27.4056 9.67386 27.363 9.72217 27.3204 9.74491Z" fill="white"/>
<path d="M21.6469 14.1638L13.4487 18.8951C13.1475 19.0685 12.9031 18.8838 12.9031 18.4831C12.9031 18.0796 13.1475 17.6135 13.4487 17.4373L21.6469 12.706C21.9481 12.5326 22.1925 12.7174 22.1925 13.118C22.1925 13.5215 21.9481 13.9876 21.6469 14.1638Z" fill="#E8EDF0"/>
<g opacity="0.5" style="mix-blend-mode:multiply">
<path d="M44.5197 4.13184L35.0967 9.57078C34.571 9.87483 34.1419 10.6705 34.1419 11.3468V21.8865C34.1419 22.5629 34.5682 22.8641 35.0967 22.56L44.5197 17.1211V4.13184Z" fill="#B2BED3"/>
</g>
<path d="M37.0358 10.768L47.5159 4.71815C48.0416 4.4141 48.4707 4.71815 48.4707 5.39163V15.9313C48.4707 16.6077 48.0444 17.4033 47.5159 17.7074L37.0358 23.7573C36.5101 24.0613 36.081 23.7573 36.081 23.0838V12.5441C36.081 11.8678 36.5072 11.0721 37.0358 10.768Z" fill="white" stroke="#1C1C1C" stroke-width="0.230787" stroke-linecap="round" stroke-linejoin="round"/>
<path d="M38.2843 12.1082L46.2665 7.499C46.6132 7.29724 46.8974 7.51036 46.8974 7.97355C46.8974 8.43675 46.6161 8.97666 46.2665 9.17558L38.2843 13.7848C37.9376 13.9865 37.6534 13.7734 37.6534 13.3102C37.6534 12.847 37.9348 12.3071 38.2843 12.1082Z" fill="#E8EBF1"/>
<path d="M37.6569 12.4648L44.0905 8.75073V10.4273L37.6569 14.1442V12.4648Z" fill="#FF5F3B"/>
<path d="M38.2843 14.5058L46.2665 9.89658C46.6132 9.69482 46.8974 9.90795 46.8974 10.3711C46.8974 10.8343 46.6161 11.3742 46.2665 11.5732L38.2843 16.1823C37.9376 16.3841 37.6534 16.171 37.6534 15.7078C37.6534 15.2446 37.9348 14.7047 38.2843 14.5058Z" fill="#E8EBF1"/>
<path d="M37.6569 14.8707L41.084 12.89V14.5694L37.6569 16.5472V14.8707Z" fill="#FFB905"/>
<path d="M38.2843 16.9005L46.2665 12.2914C46.6132 12.0896 46.8974 12.3027 46.8974 12.7659C46.8974 13.2291 46.6161 13.769 46.2665 13.9679L38.2843 18.5771C37.9376 18.7789 37.6534 18.5657 37.6534 18.1026C37.6534 17.6394 37.9348 17.0994 38.2843 16.9005Z" fill="#E8EBF1"/>
<path d="M37.6569 17.2585L45.8011 12.5555V14.235L37.6569 18.9379V17.2585Z" fill="#417DFC"/>
<path d="M38.2843 19.2923L46.2665 14.6831C46.6132 14.4813 46.8974 14.6944 46.8974 15.1576C46.8974 15.6208 46.6161 16.1607 46.2665 16.3597L38.2843 20.9688C37.9376 21.1706 37.6534 20.9575 37.6534 20.4943C37.6534 20.0311 37.9348 19.4912 38.2843 19.2923Z" fill="#E8EBF1"/>
<path d="M37.6569 19.6557L42.4053 16.9135V18.5929L37.6569 21.3351V19.6557Z" fill="#05CC79"/>
<path d="M10.3807 19.5554L8.43379 20.6795C8.40956 20.6935 8.38992 20.7275 8.38992 20.7555V20.8479C8.38992 20.8759 8.40956 20.8872 8.43379 20.8733L10.3807 19.7492C10.405 19.7352 10.4246 19.7012 10.4246 19.6732V19.5808C10.4246 19.5528 10.405 19.5415 10.3807 19.5554Z" fill="#F5826B"/>
<path d="M10.2653 19.6221L8.43379 20.6795C8.40956 20.6935 8.38992 20.7275 8.38992 20.7555V20.8479C8.38992 20.8759 8.40956 20.8872 8.43379 20.8733L10.2653 19.8158C10.2895 19.8018 10.3092 19.7678 10.3092 19.7398V19.6474C10.3092 19.6194 10.2895 19.6081 10.2653 19.6221Z" fill="#F1502E"/>
<path d="M10.5358 19.6405L8.27864 20.9437C8.27044 20.9484 8.26379 20.96 8.26379 20.9694V21.0007C8.26379 21.0102 8.27044 21.014 8.27864 21.0093L10.5358 19.7062C10.544 19.7014 10.5506 19.6899 10.5506 19.6804V19.6491C10.5506 19.6397 10.544 19.6358 10.5358 19.6405Z" fill="#FBDD8C"/>
<path d="M10.4433 20.3496C10.4995 20.3172 10.5388 20.3591 10.519 20.4312C10.4672 20.6211 10.3304 20.8536 10.2013 20.9281L8.61252 21.8454C8.48394 21.9197 8.34776 21.8431 8.29573 21.7151C8.2758 21.6661 8.31523 21.5785 8.37142 21.546L10.4434 20.3496L10.4433 20.3496Z" fill="#FFC634"/>
<path d="M10.4119 20.1798L9.54572 20.5705C9.45355 20.6121 9.36074 20.6656 9.26857 20.7305L8.40234 21.34C8.40234 21.34 8.22448 21.4518 8.16441 21.6784C8.16441 21.6784 8.24581 21.7874 8.39368 21.702C8.54148 21.6166 8.59063 21.4293 8.847 21.2813C9.10338 21.1333 9.03642 21.3309 9.26505 21.1989C9.49375 21.0669 9.56882 20.8646 9.82519 20.7165C10.0816 20.5685 10.204 20.6568 10.3518 20.5715C10.4996 20.4861 10.6498 20.2435 10.6498 20.2435C10.5897 20.0862 10.4119 20.1798 10.4119 20.1798L10.4119 20.1798Z" fill="#038851"/>
<path d="M10.4533 20.128L9.55147 20.5393C9.4555 20.5831 9.35889 20.6389 9.26299 20.7059L8.36113 21.336C8.36113 21.336 8.17594 21.4519 8.11341 21.68C8.11341 21.68 8.26973 21.7457 8.42365 21.6568C8.57758 21.5679 8.70503 21.3354 8.97197 21.1813C9.2389 21.0272 9.30235 21.1495 9.54042 21.0121C9.77848 20.8746 9.70877 20.7559 9.97571 20.6018C10.2427 20.4477 10.3092 20.5682 10.463 20.4794C10.6169 20.3905 10.701 20.186 10.701 20.186C10.6385 20.0302 10.4533 20.128 10.4533 20.128Z" fill="#05CC79"/>
<path d="M8.35605 20.7472C8.30944 20.7741 8.27367 20.7466 8.28127 20.689C8.34521 20.2073 8.82494 19.5846 9.40719 19.2484C9.98944 18.9122 10.4692 18.981 10.5331 19.3889C10.5407 19.4376 10.5049 19.5066 10.4583 19.5335L8.35605 20.7472Z" fill="#FFC634"/>
<path d="M10.4985 19.7275L8.31617 20.9875C8.19383 21.0581 8.09465 21.2299 8.09465 21.3711C8.09465 21.5124 8.19383 21.5697 8.31617 21.499L10.4985 20.2391C10.6208 20.1684 10.72 19.9967 10.72 19.8554C10.72 19.7141 10.6208 19.6569 10.4985 19.7275Z" fill="#B2695D"/>
<path d="M10.4134 19.7766L8.31617 20.9875C8.19383 21.0581 8.09465 21.2299 8.09465 21.3711C8.09465 21.5124 8.19383 21.5697 8.31617 21.499L10.4134 20.2882C10.5358 20.2175 10.635 20.0458 10.635 19.9045C10.635 19.7632 10.5358 19.706 10.4134 19.7766Z" fill="#7A473C"/>
<path d="M10.3925 19.7233L8.29327 20.9352C8.27883 20.9436 8.26595 20.9629 8.26405 20.9805C8.26172 21.0018 8.27531 21.0112 8.29221 21.0015L8.35544 20.965C8.47205 20.8976 8.58513 20.8782 8.67611 20.9098C8.73828 20.9314 8.82116 20.9596 8.93093 20.9957C8.97142 21.0091 9.02867 20.9747 9.06803 20.9136C9.13288 20.8129 9.24491 20.6514 9.39778 20.4772C9.53206 20.3243 9.67964 20.2004 9.82899 20.1142L10.3915 19.7895C10.4059 19.7811 10.4188 19.7618 10.4207 19.7442C10.423 19.7229 10.4094 19.7135 10.3925 19.7233Z" fill="#FFDB7D"/>
<path d="M8.6641 20.2873C8.68039 20.2779 8.6936 20.255 8.6936 20.2362C8.6936 20.2174 8.68039 20.2098 8.6641 20.2192C8.64782 20.2286 8.63461 20.2515 8.63461 20.2703C8.63461 20.2891 8.64782 20.2967 8.6641 20.2873Z" fill="white"/>
<path d="M10.2614 19.3654C10.2777 19.356 10.2909 19.3331 10.2909 19.3143C10.2909 19.2955 10.2777 19.2879 10.2614 19.2973C10.2451 19.3067 10.2319 19.3296 10.2319 19.3484C10.2319 19.3672 10.2451 19.3748 10.2614 19.3654Z" fill="white"/>
<path d="M8.9982 20.2116C9.01448 20.2022 9.02769 20.1793 9.02769 20.1605C9.02769 20.1417 9.01448 20.1341 8.9982 20.1435C8.98191 20.1529 8.9687 20.1758 8.9687 20.1946C8.9687 20.2134 8.98191 20.221 8.9982 20.2116Z" fill="white"/>
<path d="M10.0609 19.6174C10.0771 19.608 10.0903 19.5851 10.0903 19.5663C10.0903 19.5475 10.0771 19.5399 10.0609 19.5493C10.0446 19.5587 10.0314 19.5815 10.0314 19.6003C10.0314 19.6191 10.0446 19.6268 10.0609 19.6174Z" fill="white"/>
<path d="M9.90378 19.3874C9.92007 19.378 9.93327 19.3551 9.93327 19.3363C9.93327 19.3175 9.92007 19.3099 9.90378 19.3193C9.88749 19.3287 9.87429 19.3516 9.87429 19.3704C9.87429 19.3892 9.88749 19.3968 9.90378 19.3874Z" fill="white"/>
<path d="M9.25613 19.8925C9.27242 19.8831 9.28562 19.8602 9.28562 19.8414C9.28562 19.8226 9.27242 19.815 9.25613 19.8244C9.23984 19.8338 9.22664 19.8567 9.22664 19.8755C9.22664 19.8943 9.23984 19.9019 9.25613 19.8925Z" fill="white"/>
<path d="M9.66449 19.6414C9.68078 19.632 9.69399 19.6091 9.69399 19.5903C9.69399 19.5715 9.68078 19.5639 9.66449 19.5733C9.64821 19.5827 9.635 19.6056 9.635 19.6244C9.635 19.6432 9.64821 19.6508 9.66449 19.6414Z" fill="white"/>
<path d="M8.96875 19.8932C8.98504 19.8838 8.99825 19.861 8.99825 19.8422C8.99825 19.8234 8.98504 19.8157 8.96875 19.8251C8.95247 19.8345 8.93926 19.8574 8.93926 19.8762C8.93926 19.895 8.95247 19.9026 8.96875 19.8932Z" fill="white"/>
<path d="M9.15143 19.6092C9.16772 19.5998 9.18092 19.5769 9.18092 19.5581C9.18092 19.5393 9.16772 19.5317 9.15143 19.5411C9.13514 19.5505 9.12194 19.5734 9.12194 19.5922C9.12194 19.611 9.13514 19.6186 9.15143 19.6092Z" fill="white"/>
<path d="M9.36528 19.6298C9.38157 19.6204 9.39478 19.5975 9.39478 19.5787C9.39478 19.5599 9.38157 19.5523 9.36528 19.5617C9.349 19.5711 9.33579 19.594 9.33579 19.6128C9.33579 19.6316 9.349 19.6392 9.36528 19.6298Z" fill="white"/>
<path d="M9.60526 19.4157C9.62155 19.4063 9.63475 19.3834 9.63475 19.3646C9.63475 19.3458 9.62155 19.3382 9.60526 19.3476C9.58897 19.357 9.57577 19.3799 9.57577 19.3987C9.57577 19.4175 9.58897 19.4251 9.60526 19.4157Z" fill="white"/>
<path d="M52.9322 59.8888L44.7183 55.1469C44.1897 54.8415 44.2557 54.3084 44.8665 53.9558L52.7206 49.4209C53.3314 49.0683 54.2547 49.0301 54.7833 49.3355L62.9971 54.0774C63.5258 54.3828 63.4598 54.9159 62.849 55.2686L54.9949 59.8034C54.3841 60.1561 53.4608 60.1942 52.9322 59.8888Z" fill="#EEEEEE"/>
<path d="M33.9297 27.0965L1.75443 45.6737V38.0885L33.9297 19.5114C34.71 19.06 35.3448 19.5405 35.3448 20.58V24.3944C35.3448 25.4368 34.7129 26.6452 33.9297 27.0965Z" fill="white" stroke="#1C1C1C" stroke-width="0.236482" stroke-miterlimit="10"/>
<path opacity="0.64" d="M13.9185 35.763L4.38825 41.2634C4.01263 41.4788 3.70689 41.2488 3.70689 40.748C3.70689 40.2472 4.01263 39.6648 4.38825 39.4493L13.9185 33.949C14.2942 33.7335 14.5999 33.9635 14.5999 34.4644C14.5999 34.9652 14.2942 35.5476 13.9185 35.763Z" fill="#E8EBF1"/>
<path opacity="0.64" d="M19.0187 32.8198L15.8536 34.6455C15.4779 34.8609 15.1722 34.6309 15.1722 34.1301C15.1722 33.6293 15.4779 33.0469 15.8536 32.8314L19.0187 31.0058C19.3943 30.7903 19.7 31.0203 19.7 31.5211C19.7 32.022 19.3943 32.6043 19.0187 32.8198Z" fill="#E8EBF1"/>
<path d="M31.9931 26.4158L24.1313 30.9552C23.3044 31.4328 22.6347 30.9261 22.6347 29.8255C22.6347 28.7248 23.3044 27.4436 24.1313 26.969L31.9931 22.4295C32.8201 21.952 33.4898 22.4587 33.4898 23.5593C33.4898 24.66 32.8201 25.9411 31.9931 26.4158Z" fill="#05CC79"/>
<path d="M1.7553 45.6729V38.0878C1.14383 38.4401 0.645912 39.3893 0.645912 40.2046V44.8344C0.645912 45.6497 1.14092 46.0253 1.7553 45.6729Z" fill="#05CC79" stroke="#1C1C1C" stroke-width="0.236482" stroke-linecap="round" stroke-linejoin="round"/>
<path d="M33.9297 36.0459L1.75443 54.623V47.0378L33.9297 28.4607C34.71 28.0094 35.3448 28.4898 35.3448 29.5293V33.3437C35.3448 34.3862 34.7129 35.5945 33.9297 36.0459Z" fill="white" stroke="#1C1C1C" stroke-width="0.236482" stroke-miterlimit="10"/>
<path opacity="0.64" d="M10.6573 46.5963L4.38825 50.2156C4.01263 50.4311 3.70689 50.2011 3.70689 49.7002C3.70689 49.1994 4.01263 48.6171 4.38825 48.4016L10.6573 44.7822C11.0329 44.5668 11.3387 44.7968 11.3387 45.2976C11.3387 45.7985 11.0329 46.3808 10.6573 46.5963Z" fill="#E8EBF1"/>
<path opacity="0.64" d="M15.8752 43.5819L12.7101 45.4076C12.3345 45.623 12.0288 45.393 12.0288 44.8922C12.0288 44.3913 12.3345 43.809 12.7101 43.5935L15.8752 41.7678C16.2509 41.5524 16.5566 41.7824 16.5566 42.2832C16.5566 42.784 16.2509 43.3664 15.8752 43.5819Z" fill="#E8EBF1"/>
<path d="M32.04 35.4836L21.6245 41.4965C20.7976 41.974 20.1278 41.4673 20.1278 40.3667C20.1278 39.266 20.7976 37.9849 21.6245 37.5102L32.04 31.4974C32.8669 31.0199 33.5366 31.5265 33.5366 32.6272C33.5366 33.7278 32.8669 35.009 32.04 35.4836Z" fill="#05CC79"/>
<path d="M1.7553 54.6219V47.0367C1.14383 47.3891 0.645912 48.3383 0.645912 49.1536V53.7833C0.645912 54.5986 1.14092 54.9742 1.7553 54.6219Z" fill="#05CC79" stroke="#1C1C1C" stroke-width="0.236482" stroke-linecap="round" stroke-linejoin="round"/>
<path d="M33.9297 44.7459L1.75443 63.3231V55.7379L33.9297 37.1608C34.71 36.7094 35.3448 37.1899 35.3448 38.2294V42.0438C35.3448 43.0862 34.7129 44.2946 33.9297 44.7459Z" fill="white" stroke="#1C1C1C" stroke-width="0.236482" stroke-miterlimit="10"/>
<path opacity="0.64" d="M10.6573 55.2962L4.38825 58.9156C4.01263 59.131 3.70689 58.901 3.70689 58.4002C3.70689 57.8994 4.01263 57.317 4.38825 57.1015L10.6573 53.4822C11.0329 53.2667 11.3387 53.4968 11.3387 53.9976C11.3387 54.4984 11.0329 55.0808 10.6573 55.2962Z" fill="#E8EBF1"/>
<path opacity="0.64" d="M17.4605 51.3728L12.7114 54.1157C12.3358 54.3311 12.03 54.1011 12.03 53.6003C12.03 53.0994 12.3358 52.5171 12.7114 52.3016L17.4605 49.5587C17.8361 49.3433 18.1419 49.5733 18.1419 50.0741C18.1419 50.5749 17.8361 51.1573 17.4605 51.3728Z" fill="#E8EBF1"/>
<path d="M32.112 43.9908L22.4886 49.5465C21.6616 50.024 20.9919 49.5174 20.9919 48.4167C20.9919 47.3161 21.6616 46.0349 22.4886 45.5603L32.112 40.0046C32.939 39.5271 33.6087 40.0337 33.6087 41.1344C33.6087 42.235 32.939 43.5162 32.112 43.9908Z" fill="#05CC79"/>
<path d="M1.7553 63.322V55.7368C1.14383 56.0891 0.645912 57.0384 0.645912 57.8537V62.4834C0.645912 63.2987 1.14092 63.6743 1.7553 63.322Z" fill="#05CC79" stroke="#1C1C1C" stroke-width="0.236482" stroke-linecap="round" stroke-linejoin="round"/>
<path d="M58.6484 51.7694C58.6152 51.1391 58.5458 50.2255 58.5458 50.2255L56.7607 50.4908C56.7607 50.4908 56.9054 51.7935 56.9295 52.273C56.9446 52.5323 56.7788 53.2047 56.5978 53.8772C56.4079 54.5828 56.3053 54.8964 56.2179 55.4874C56.1154 56.1599 55.9073 57.1369 56.9899 57.2153C57.7558 57.2695 58.7087 57.0675 58.8956 55.5839C58.98 54.9115 58.9831 54.5074 58.9348 53.645C58.8896 52.8157 58.6725 52.2549 58.6453 51.7694H58.6484Z" fill="white" stroke="#1C1C1C" stroke-width="0.200775" stroke-linecap="round" stroke-linejoin="round"/>
<path d="M53.8752 49.3613L52.1352 49.5543C52.1352 49.5543 52.2348 50.1242 52.2348 50.664C52.2348 51.1525 52.1925 51.9064 51.0768 52.4431C49.8435 53.0372 48.6313 53.7217 49.1982 54.4454C49.5148 54.8525 50.5039 55.0786 51.6678 54.5569C52.2197 54.3097 52.4368 53.9418 53.2359 53.5106C53.7364 53.2422 54.3245 53.2151 54.3516 52.7175C54.3787 52.22 54.3426 51.9124 54.1948 51.3364C54.047 50.7605 53.9355 50.7364 53.8752 49.3613Z" fill="white" stroke="#1C1C1C" stroke-width="0.200775" stroke-linecap="round" stroke-linejoin="round"/>
<path d="M59.0968 51.0396L58.7862 41.3782C58.7862 41.3782 58.7228 31.6926 57.8303 29.8833C57.8303 29.8833 50.8676 29.9044 49.9931 29.7808C49.8182 30.1004 49.5709 31.3337 49.58 32.2956C49.5317 34.9764 50.9038 41.9993 50.9038 41.9993C50.9038 41.9993 51.8898 50.2978 51.9079 50.331C51.9592 50.4396 52.1431 50.7984 53.286 50.6959C53.9283 50.6386 54.2057 50.2858 54.2027 50.1772L53.877 42.2496L53.9554 37.241L55.0862 42.2315L56.5608 51.3442C56.603 51.5734 57.5317 51.7724 58.165 51.6548C58.7982 51.5342 59.1209 51.2869 59.0907 51.0396H59.0968Z" fill="white" stroke="#1C1C1C" stroke-width="0.200775" stroke-linecap="round" stroke-linejoin="round"/>
<path d="M52.2664 18.1817C51.4854 17.8892 50.4662 18.046 49.8902 19.4421C49.4741 20.4462 49.7032 21.562 48.8046 23.6426C47.7462 23.332 47.312 21.9087 45.9912 21.8213C44.6735 21.7338 43.7417 23.2566 44.9358 24.5774C46.3802 26.1786 50.2671 28.2985 51.0904 26.0459C52.1518 24.1914 52.3689 22.1681 52.58 21.1217C52.8393 19.8281 53.3188 18.5767 52.2634 18.1817H52.2664Z" fill="#05CC79" stroke="#1C1C1C" stroke-width="0.200775" stroke-linecap="round" stroke-linejoin="round"/>
<path d="M51.0603 22.1054C51.0211 22.6241 50.6291 25.926 49.5134 28.7937C49.043 30.0059 51.0875 31.7729 53.3038 32.1408C55.4297 32.4936 58.1557 31.5438 58.1557 29.6651C58.1557 29.6651 58.0652 23.5046 58.5809 21.3124C59.1418 18.9241 57.8331 18.3723 54.3864 18.0497C52.9541 17.9682 52.3118 17.92 51.6423 18.0286" fill="#05CC79"/>
<path d="M51.0603 22.1054C51.0211 22.6241 50.6291 25.926 49.5134 28.7937C49.043 30.0059 51.0875 31.7729 53.3038 32.1408C55.4297 32.4936 58.1557 31.5438 58.1557 29.6651C58.1557 29.6651 58.0652 23.5046 58.5809 21.3124C59.1418 18.9241 57.8331 18.3723 54.3864 18.0497C52.9541 17.9682 52.3118 17.92 51.6423 18.0286" stroke="#1C1C1C" stroke-width="0.200775" stroke-linecap="round" stroke-linejoin="round"/>
<path d="M45.4855 23.9739C45.8202 23.9076 46.4233 23.3196 46.3811 22.7105C46.3721 22.5778 45.7931 21.4379 45.4433 21.0429C45.19 20.7565 44.8251 20.3735 44.5598 20.4127C44.2944 20.4519 44.2763 20.663 44.4211 20.8891C44.2432 20.8439 43.1757 20.1051 42.642 20.8047C42.1715 21.4229 42.4459 22.2672 43.432 22.7497C44.4181 23.2321 44.795 24.1096 45.4825 23.9739H45.4855Z" fill="white" stroke="#1C1C1C" stroke-width="0.200775" stroke-linecap="round" stroke-linejoin="round"/>
<path d="M56.5618 24.472C56.3689 25.636 56.5015 24.861 56.1306 26.3356C55.5034 26.2089 53.5796 25.9194 53.0488 25.7445C52.1533 25.452 51.3572 27.7377 52.2648 28.2805C52.7202 28.5519 57.961 30.3763 58.7752 28.0242C59.5894 25.6722 60.093 21.6496 59.6044 20.6183C58.929 19.195 57.5117 18.3688 56.3538 18.1848" fill="#05CC79"/>
<path d="M56.5618 24.472C56.3689 25.636 56.5015 24.861 56.1306 26.3356C55.5034 26.2089 53.5796 25.9194 53.0488 25.7445C52.1533 25.452 51.3572 27.7377 52.2648 28.2805C52.7202 28.5519 57.961 30.3763 58.7752 28.0242C59.5894 25.6722 60.093 21.6496 59.6044 20.6183C58.929 19.195 57.5117 18.3688 56.3538 18.1848" stroke="#1C1C1C" stroke-width="0.200775" stroke-linecap="round" stroke-linejoin="round"/>
<path d="M54.1399 10.8318C52.7347 10.8379 51.5286 11.8058 51.4381 13.208C51.4079 13.6754 51.6582 14.2061 51.6733 14.5107C51.6884 14.8152 51.4984 15.3218 51.5135 15.7259C51.5527 16.7692 51.5768 17.4085 52.1377 17.8367C52.3337 17.9845 52.6684 18.087 53.0664 18.1413C53.0815 18.4428 53.1418 18.9373 53.1629 19.2148C53.8505 20.1495 56.4799 19.5193 56.4166 18.482C56.3292 18.1352 56.2658 17.6648 56.2176 17.2004C56.1724 16.6516 56.1754 16.2053 56.2749 15.7108C56.6247 15.5088 56.8237 15.1469 56.8086 14.7157C56.8056 14.6313 56.7875 14.5529 56.7574 14.4775C56.7785 14.378 56.7996 14.2724 56.8147 14.1579C57.071 12.5024 56.2508 10.8228 54.1399 10.8318Z" fill="white" stroke="#1C1C1C" stroke-width="0.200775" stroke-linecap="round" stroke-linejoin="round"/>
<path d="M49.5147 28.0642L44.3823 25.1C44.1019 24.9402 43.9089 24.6628 43.8456 24.3462L42.8505 19.1807C42.8083 18.9696 43.0375 18.8068 43.2244 18.9154L48.42 21.9157C48.7005 22.0755 48.8935 22.353 48.9568 22.6696L49.9368 27.7627C49.982 28.0039 49.7257 28.1848 49.5147 28.0642Z" fill="#1C1C1C" stroke="#1C1C1C" stroke-width="0.200775" stroke-linecap="round" stroke-linejoin="round"/>
<path d="M52.5973 28.0255C53.0044 28.0436 53.517 26.2524 52.7058 26.1107C52.0756 26.0021 50.7277 24.9829 50.01 25.1216C49.8442 25.1517 49.5999 25.393 49.7748 25.5317C49.1446 25.6071 48.3787 25.981 48.4752 26.6685C48.6018 27.5581 48.9878 27.6606 50.1306 27.6576C50.9569 27.6576 51.4303 27.9712 52.6003 28.0255H52.5973Z" fill="white" stroke="#1C1C1C" stroke-width="0.200775" stroke-linecap="round" stroke-linejoin="round"/>
<path d="M53.6162 10.5268C55.341 10.2735 57.5725 11.35 57.4157 13.7352C57.289 15.7043 56.2246 16.4099 55.9381 16.4099C55.9652 16.3134 55.9894 16.22 56.0165 16.1355C56.0828 15.9124 56.2125 15.7224 56.3663 15.5475C56.6045 15.2791 56.8277 14.5675 56.6106 14.278C56.2789 13.8378 55.5039 13.8227 55.3652 15.1615C55.3441 15.3636 55.0274 15.1917 55.0184 14.9354C54.949 13.2347 55.8838 12.1913 54.4877 11.5792C53.6433 11.3319 53.2212 12.4296 52.5819 12.2456C52.1507 12.122 52.2984 11.6666 51.9064 11.8898C51.9064 11.8898 52.3829 10.7047 53.6162 10.5238V10.5268Z" fill="#FFC634" stroke="#1C1C1C" stroke-width="0.200775" stroke-linecap="round" stroke-linejoin="round"/>
<path d="M54.9109 13.4957C56.1957 13.4957 57.1669 13.1898 57.4346 12.8075C57.4346 12.0809 56.7234 10.1691 54.3374 10.1691C51.9513 10.1691 51.4695 11.8898 51.3548 12.578C51.5842 13.1516 53.8785 13.534 54.9109 13.4957Z" fill="#1C1C1C" stroke="#1C1C1C" stroke-width="0.200775"/>
<path d="M52.6166 14.4131C53.5343 14.4131 54.6432 13.763 55.1403 13.4954C55.1403 13.3424 54.5438 12.9677 53.9932 12.6924C53.3049 12.3483 52.7313 12.1188 51.8136 12.4629C50.8959 12.8071 49.8635 13.1512 49.9782 13.4954C50.1321 13.9571 51.1253 14.4131 52.6166 14.4131Z" fill="#1C1C1C" stroke="#1C1C1C" stroke-width="0.200775"/>
</svg>
