<svg width="64" height="65" viewBox="0 0 64 65" fill="none" xmlns="http://www.w3.org/2000/svg">
<path d="M22.399 46.3748L21.0508 1.02348L22.399 0.25L51.3938 16.9898V63.1146L50.0456 63.8952L22.399 46.3748Z" fill="#05CC79" stroke="#1C1C1C" stroke-width="0.5" stroke-linecap="round" stroke-linejoin="round"/>
<path d="M21.0508 47.1554V1.02344L50.0456 17.7703V63.8951L21.0508 47.1554Z" fill="white" stroke="#1C1C1C" stroke-width="0.5" stroke-linecap="round" stroke-linejoin="round"/>
<path d="M22.7031 46.1978V3.89062L48.3911 18.7215V61.0287L22.7031 46.1978Z" fill="white" stroke="#1C1C1C" stroke-width="0.5" stroke-linecap="round" stroke-linejoin="round"/>
<path d="M40.9678 15.5214L28.734 8.45365L27.918 2.5L41.7838 10.4973L40.9678 15.5214Z" fill="white" stroke="#1C1C1C" stroke-width="0.5" stroke-linecap="round" stroke-linejoin="round"/>
<path d="M42.7223 25.6119L28.3668 17.3236C27.4443 16.7914 26.6992 15.3651 26.6992 14.1445C26.6992 12.9169 27.4443 12.3563 28.3668 12.8885L42.7223 21.1768C43.6448 21.709 44.3899 23.1353 44.3899 24.3559C44.3899 25.5835 43.6448 26.1441 42.7223 25.6119Z" fill="#EEEEEE"/>
<path d="M33.2747 27.2938L26.1218 23.1638C25.6534 22.8942 25.2773 22.1704 25.2773 21.553C25.2773 20.9285 25.6534 20.6447 26.1218 20.9143L33.2747 25.0443C33.743 25.3139 34.1191 26.0377 34.1191 26.6551C34.1191 27.2796 33.743 27.5634 33.2747 27.2938Z" fill="#EEEEEE"/>
<path d="M36.8298 33.1649L26.1218 26.9841C25.6534 26.7145 25.2773 25.9907 25.2773 25.3733C25.2773 24.7488 25.6534 24.465 26.1218 24.7347L36.8298 30.9154C37.2982 31.185 37.6743 31.9088 37.6743 32.5262C37.6743 33.1507 37.2982 33.4345 36.8298 33.1649Z" fill="#EEEEEE"/>
<path d="M36.8298 36.993L26.1218 30.8123C25.6534 30.5426 25.2773 29.8188 25.2773 29.2014C25.2773 28.577 25.6534 28.2931 26.1218 28.5628L36.8298 34.7435C37.2982 35.0132 37.6743 35.737 37.6743 36.3543C37.6743 36.9788 37.2982 37.2626 36.8298 36.993Z" fill="#EEEEEE"/>
<path d="M36.8298 40.8055L26.1218 34.6248C25.6534 34.3551 25.2773 33.6313 25.2773 33.0139C25.2773 32.3895 25.6534 32.1056 26.1218 32.3753L36.8298 38.556C37.2982 38.8257 37.6743 39.5495 37.6743 40.1668C37.6743 40.7913 37.2982 41.0751 36.8298 40.8055Z" fill="#EEEEEE"/>
<path d="M44.6377 33.8502L42.4733 32.6013C42.005 32.3317 41.6289 31.6079 41.6289 30.9905C41.6289 30.366 42.005 30.0822 42.4733 30.3518L44.6377 31.6008C45.106 31.8704 45.4821 32.5942 45.4821 33.2116C45.4821 33.836 45.106 34.1199 44.6377 33.8502Z" fill="#EEEEEE"/>
<path d="M44.6377 37.6705L42.4733 36.4216C42.005 36.152 41.6289 35.4282 41.6289 34.8108C41.6289 34.1863 42.005 33.9025 42.4733 34.1722L44.6377 35.4211C45.106 35.6907 45.4821 36.4145 45.4821 37.0319C45.4821 37.6564 45.106 37.9402 44.6377 37.6705Z" fill="#EEEEEE"/>
<path d="M44.6377 41.4909L42.4733 40.2419C42.005 39.9723 41.6289 39.2485 41.6289 38.6311C41.6289 38.0067 42.005 37.7228 42.4733 37.9925L44.6377 39.2414C45.106 39.511 45.4821 40.2348 45.4821 40.8522C45.4821 41.4767 45.106 41.7605 44.6377 41.4909Z" fill="#EEEEEE"/>
<path d="M44.6377 45.3112L42.4733 44.0623C42.005 43.7926 41.6289 43.0688 41.6289 42.4514C41.6289 41.827 42.005 41.5431 42.4733 41.8128L44.6377 43.0617C45.106 43.3314 45.4821 44.0552 45.4821 44.6725C45.4821 45.297 45.106 45.5808 44.6377 45.3112Z" fill="#EEEEEE"/>
<path d="M36.8298 44.8367L26.1218 38.656C25.6534 38.3863 25.2773 37.6625 25.2773 37.0452C25.2773 36.4207 25.6534 36.1369 26.1218 36.4065L36.8298 42.5873C37.2982 42.8569 37.6743 43.5807 37.6743 44.1981C37.6743 44.8225 37.2982 45.1064 36.8298 44.8367Z" fill="#EEEEEE"/>
<path d="M44.6377 49.3424L42.4733 48.0935C42.005 47.8238 41.6289 47.1 41.6289 46.4827C41.6289 45.8582 42.005 45.5744 42.4733 45.844L44.6377 47.093C45.106 47.3626 45.4821 48.0864 45.4821 48.7038C45.4821 49.3282 45.106 49.6121 44.6377 49.3424Z" fill="#EEEEEE"/>
<path d="M50.043 17.7649L51.3912 16.9844" stroke="#1C1C1C" stroke-width="0.5" stroke-linecap="round" stroke-linejoin="round"/>
<path d="M16.1394 21.415L25.2224 26.659C29.3382 29.0362 32.6805 34.3015 32.6805 38.4173C32.6805 40.2481 32.0205 41.5396 30.9277 42.2066C29.5582 43.044 28.2241 43.7678 28.2241 43.7678L16.1323 36.3239C12.0165 33.9467 7.51758 22.451 7.51758 22.451C7.51758 22.451 9.32 21.4646 10.3986 20.7905C11.7682 19.939 13.826 20.0809 16.1323 21.415H16.1394Z" fill="#05CC79" stroke="#1C1C1C" stroke-width="0.5" stroke-linecap="round" stroke-linejoin="round"/>
<path d="M13.4365 22.9748L22.5196 28.2188C26.6353 30.596 29.9776 35.8614 29.9776 39.9771C29.9776 44.0929 26.6424 45.505 22.5196 43.1278L13.4365 37.8838C9.3137 35.5066 5.97852 30.2412 5.97852 26.1255C5.97852 22.0097 9.3137 20.5976 13.4365 22.9748Z" fill="#05CC79" stroke="#1C1C1C" stroke-width="0.5" stroke-linecap="round" stroke-linejoin="round"/>
<path d="M9.70996 23.4922C10.4284 23.4922 11.2836 23.7317 12.2031 24.2061L12.6006 24.4238L21.6836 29.668C23.0579 30.4633 24.6148 31.7351 25.6855 33.0908C27.4154 35.281 28.3076 37.8319 28.3076 39.9893C28.3076 40.6316 28.2076 41.2988 27.9033 41.7979C27.6339 42.2397 27.1911 42.5711 26.4404 42.6201H26.2441C25.4232 42.6201 24.4237 42.3069 23.3535 41.6885H23.3525L14.2705 36.4443C12.4844 35.4108 10.8237 33.7086 9.61035 31.8164C8.39546 29.9217 7.64648 27.8643 7.64648 26.1299C7.64653 25.4875 7.74646 24.8203 8.05078 24.3213C8.34299 23.8422 8.83859 23.4922 9.70996 23.4922Z" fill="#EEEEEE" stroke="#1C1C1C" stroke-width="0.5"/>
<path d="M28.4928 39.6395C28.4928 41.2645 27.8968 42.3857 26.9459 42.8754C26.6124 43.0457 25.037 43.9256 25.037 43.9256C25.037 43.9256 24.3558 42.9463 23.5256 42.4638C20.7864 40.8813 18.5654 37.0494 18.5654 33.9058C18.5654 33.2033 18.3809 31.6777 18.3809 31.6777C18.3809 31.6777 19.5162 31.0106 20.0059 30.7268C20.9071 30.2088 22.1489 30.2868 23.5185 31.0816C26.2576 32.664 28.4787 36.4959 28.4787 39.6395H28.4928Z" fill="white" stroke="#1C1C1C" stroke-width="0.5" stroke-linecap="round" stroke-linejoin="round"/>
<path d="M25.5135 43.7104C27.4387 42.585 27.42 38.9711 25.4717 35.6385C23.5235 32.3058 20.3836 30.5165 18.4584 31.6419C16.5333 32.7674 16.552 36.3813 18.5002 39.7139C20.4484 43.0466 23.5884 44.8359 25.5135 43.7104Z" fill="white" stroke="#1C1C1C" stroke-width="0.5" stroke-linecap="round" stroke-linejoin="round"/>
</svg>
