<svg width="65" height="65" viewBox="0 0 65 65" fill="none" xmlns="http://www.w3.org/2000/svg">
<path d="M56.826 49.4084L24.3001 30.8815C23.5287 30.4381 23.146 29.0959 23.3343 28.245L29.0803 0.897999C29.3111 -0.0966571 30.532 0.280828 31.0665 0.556456L63.5681 19.0415C64.0358 19.3051 64.9468 19.9942 64.7099 21.2285L59.0369 48.6534C58.7514 50.1694 57.488 49.7619 56.8199 49.4024L56.826 49.4084Z" fill="white" stroke="#1C1C1C" stroke-width="0.5" stroke-linecap="round" stroke-linejoin="round"/>
<path d="M57.3061 47.3759C57.2415 47.693 56.9714 47.7341 56.6895 47.5697L25.1825 29.3937C24.466 28.9767 24.466 28.7242 24.6422 27.9196L29.6927 3.28369C29.91 2.34993 30.7439 2.57896 31.2372 2.83736L61.6225 20.4026C62.0512 20.6493 62.7442 21.3364 62.4858 22.3876L57.3061 47.37V47.3759Z" fill="#EEEEEE" stroke="#1C1C1C" stroke-width="0.5" stroke-linecap="round" stroke-linejoin="round"/>
<path d="M33.2624 62.3731L0.915577 43.698C0.363544 43.3808 0.363544 42.588 0.915577 42.2709L22.1924 29.9911C22.6798 29.7092 23.2847 29.7092 23.778 29.9911L56.5653 48.9188C57.0175 49.1772 57.0175 49.8291 56.5653 50.0875L35.2767 62.379C34.6542 62.7372 33.8908 62.7372 33.2683 62.379L33.2624 62.3731Z" fill="white" stroke="#1C1C1C" stroke-width="0.5" stroke-linecap="round" stroke-linejoin="round"/>
<path d="M0.501552 43.0003C0.501552 43.2763 0.636631 43.5523 0.912648 43.7109L33.2595 62.3861C33.882 62.7443 34.6454 62.7443 35.2679 62.3861L56.5565 50.0945C56.7796 49.9653 56.8912 49.7363 56.8912 49.5131C56.8912 49.5131 56.8912 51.0459 56.8912 51.1457C56.8912 51.3747 56.7796 51.6096 56.5565 51.7388L35.2679 64.0304C34.6454 64.3886 33.882 64.3886 33.2595 64.0304L0.912648 45.3552C0.642504 45.2025 0.507425 44.9324 0.501552 44.6622C0.501552 44.5389 0.501552 43.0003 0.501552 43.0003Z" fill="white" stroke="#1C1C1C" stroke-width="0.5" stroke-linecap="round" stroke-linejoin="round"/>
<path d="M13.8797 49.2671L22.9824 54.5232C23.2055 54.6524 23.7576 54.6524 23.9807 54.5232L30.288 50.8821C30.5816 50.7118 30.5816 50.5062 30.288 50.3359L21.1853 45.0799C20.9622 44.9507 20.4101 44.9507 20.187 45.0799L13.8797 48.7209C13.5861 48.8913 13.5861 49.0968 13.8797 49.2671Z" fill="white" stroke="#1C1C1C" stroke-width="0.5" stroke-linecap="round" stroke-linejoin="round"/>
<path d="M25.9516 37.2506L29.7453 35.0601L25.7813 32.7698C25.4465 32.576 25.0296 32.576 24.689 32.7698L21.4414 34.6431L25.9516 37.2447V37.2506Z" fill="white" stroke="#1C1C1C" stroke-width="0.5" stroke-linecap="round" stroke-linejoin="round"/>
<path d="M22.1606 39.4384L25.9543 37.2479L21.4441 34.6463L17.6562 36.8368L22.1606 39.4384Z" fill="white" stroke="#1C1C1C" stroke-width="0.5" stroke-linecap="round" stroke-linejoin="round"/>
<path d="M18.371 41.6249L22.1647 39.4344L17.6545 36.8327L14.677 38.5476C14.3129 38.759 14.3129 39.2817 14.677 39.4931L18.371 41.6249Z" fill="white" stroke="#1C1C1C" stroke-width="0.5" stroke-linecap="round" stroke-linejoin="round"/>
<path d="M30.4656 39.8459L34.2593 37.6613L29.7491 35.0538L25.9553 37.2443L30.4656 39.8459Z" fill="white" stroke="#1C1C1C" stroke-width="0.5" stroke-linecap="round" stroke-linejoin="round"/>
<path d="M26.6726 42.0324L30.4663 39.8419L25.9561 37.2403L22.1623 39.4308L26.6726 42.0324Z" fill="white" stroke="#1C1C1C" stroke-width="0.5" stroke-linecap="round" stroke-linejoin="round"/>
<path d="M22.8737 44.2267L26.6675 42.0361L22.1572 39.4345L18.3694 41.6251L22.8737 44.2267Z" fill="white" stroke="#1C1C1C" stroke-width="0.5" stroke-linecap="round" stroke-linejoin="round"/>
<path d="M34.9658 42.4634L38.7596 40.2729L34.2552 37.6713L30.4615 39.8559L34.9658 42.4634Z" fill="white" stroke="#1C1C1C" stroke-width="0.5" stroke-linecap="round" stroke-linejoin="round"/>
<path d="M31.1787 44.6479L34.9666 42.4574L30.4622 39.8499L26.6685 42.0404L31.1787 44.6479Z" fill="white" stroke="#1C1C1C" stroke-width="0.5" stroke-linecap="round" stroke-linejoin="round"/>
<path d="M27.3857 46.8285L31.1795 44.6438L26.6692 42.0364L22.8755 44.2269L27.3857 46.8285Z" fill="white" stroke="#1C1C1C" stroke-width="0.5" stroke-linecap="round" stroke-linejoin="round"/>
<path d="M39.4778 45.0652L43.2716 42.8747L38.7614 40.2731L34.9676 42.4636L39.4778 45.0652Z" fill="white" stroke="#1C1C1C" stroke-width="0.5" stroke-linecap="round" stroke-linejoin="round"/>
<path d="M35.6868 47.2438L39.4806 45.0533L34.9703 42.4517L31.1824 44.6422L35.6868 47.2438Z" fill="white" stroke="#1C1C1C" stroke-width="0.5" stroke-linecap="round" stroke-linejoin="round"/>
<path d="M31.8997 49.4381L35.6876 47.2476L31.1832 44.646L27.3895 46.8306L31.8997 49.4381Z" fill="white" stroke="#1C1C1C" stroke-width="0.5" stroke-linecap="round" stroke-linejoin="round"/>
<path d="M43.9918 47.667L47.7856 45.4765L43.2753 42.8749L39.4816 45.0654L43.9918 47.667Z" fill="white" stroke="#1C1C1C" stroke-width="0.5" stroke-linecap="round" stroke-linejoin="round"/>
<path d="M40.1949 49.8613L43.9886 47.6708L39.4784 45.0692L35.6847 47.2597L40.1949 49.8613Z" fill="white" stroke="#1C1C1C" stroke-width="0.5" stroke-linecap="round" stroke-linejoin="round"/>
<path d="M36.4 52.0399L40.1937 49.8494L35.6835 47.2478L31.8956 49.4383L36.4 52.0399Z" fill="white" stroke="#1C1C1C" stroke-width="0.5" stroke-linecap="round" stroke-linejoin="round"/>
<path d="M48.4979 50.2688L51.4754 48.554C51.8395 48.3426 51.8395 47.8199 51.4754 47.6085L47.7815 45.4767L43.9877 47.6672L48.4979 50.2688Z" fill="white" stroke="#1C1C1C" stroke-width="0.5" stroke-linecap="round" stroke-linejoin="round"/>
<path d="M44.7049 52.4474L48.4987 50.2569L43.9885 47.6553L40.1947 49.8458L44.7049 52.4474Z" fill="white" stroke="#1C1C1C" stroke-width="0.5" stroke-linecap="round" stroke-linejoin="round"/>
<path d="M41.4581 54.3246L44.7057 52.4512L40.1955 49.8496L36.4017 52.0401L40.3658 54.3305C40.7005 54.5243 41.1175 54.5243 41.4581 54.3305V54.3246Z" fill="white" stroke="#1C1C1C" stroke-width="0.5" stroke-linecap="round" stroke-linejoin="round"/>
<path d="M25.3543 8.70029L39.5486 16.8927C42.7081 18.7191 45.2744 22.7595 45.2744 25.9249C45.2744 27.3285 44.7694 28.321 43.9296 28.8378C42.8784 29.4779 41.8507 30.0358 41.8507 30.0358L25.3543 20.152C22.1947 18.3256 18.7416 9.49897 18.7416 9.49897C18.7416 9.49897 20.1276 8.74138 20.9497 8.22459C22.001 7.56684 23.5807 7.67844 25.3543 8.70029Z" fill="#05CC79" stroke="#1C1C1C" stroke-width="0.5" stroke-linecap="round" stroke-linejoin="round"/>
<path d="M23.2763 9.9068L37.4706 18.0992C40.6301 19.9256 43.1965 23.9661 43.1965 27.1314C43.1965 30.2909 40.6301 31.3774 37.4706 29.551L23.2763 21.3586C20.1168 19.5322 17.5504 15.4917 17.5504 12.3264C17.5504 9.16684 20.1168 8.0804 23.2763 9.9068Z" fill="#05CC79" stroke="#1C1C1C" stroke-width="0.5" stroke-linecap="round" stroke-linejoin="round"/>
<path d="M21.5315 14.1689L21.5374 15.5724L39.2318 25.6558L39.2259 24.2523L21.5315 14.1689Z" fill="#1C1C1C"/>
<path d="M35.6142 26.3977L36.8181 27.0848C36.8122 25.5285 37.8928 24.8767 39.2318 25.646V24.2424C37.2233 23.0972 35.6024 24.0662 35.6142 26.3977Z" fill="#1C1C1C"/>
<path d="M35.5789 19.3411C35.5906 21.6726 37.2291 24.5032 39.2317 25.6484V24.2448C37.8868 23.4813 36.7945 21.5903 36.7886 20.0341L35.5847 19.347L35.5789 19.3411Z" fill="#1C1C1C"/>
<path d="M5.46782 25.5864L14.3356 17.8286L16.0034 18.7917L12.0394 29.3332L9.79014 28.053L6.80094 32.2872L5.13307 31.3241L7.71708 26.8726L7.13567 26.5496L5.46782 25.5864Z" fill="white" stroke="#1C1C1C" stroke-width="0.5" stroke-linecap="round" stroke-linejoin="round"/>
<path d="M7.13703 26.5425L16.0048 18.7847L13.7086 30.2893L11.4593 29.0091L8.87536 33.4664L6.8023 32.2802L9.38629 27.8287L7.13703 26.5425Z" fill="white" stroke="#1C1C1C" stroke-width="0.5" stroke-linecap="round" stroke-linejoin="round"/>
</svg>
