<svg width="64" height="64" viewBox="0 0 64 64" fill="none" xmlns="http://www.w3.org/2000/svg">
<g clip-path="url(#clip0_0_49)">
<path d="M54.6118 55.3396L27.338 39.5914C26.3569 39.0226 25.5605 37.5011 25.5605 36.1929V2.54218C25.5605 1.23398 26.3569 0.629646 27.338 1.19843L54.6118 16.9467C55.593 17.5154 56.3893 19.0369 56.3893 20.3451V53.9887C56.3893 55.2969 55.593 55.9013 54.6118 55.3325V55.3396Z" fill="white" stroke="#1C1C1C" stroke-width="0.5" stroke-linecap="round" stroke-linejoin="round"/>
<path d="M33.3896 15.2409L29.2871 12.8733C28.7396 12.5605 28.2988 11.7144 28.2988 10.9821V6.64513C28.2988 5.91993 28.7396 5.58577 29.2871 5.8986L33.3896 8.26616C33.937 8.579 34.3778 9.42506 34.3778 10.1574V14.4944C34.3778 15.2196 33.937 15.5537 33.3896 15.2409Z" fill="#ACACAC"/>
<path d="M52.8 22.2573L38.0824 13.7611C37.6132 13.4909 37.2363 12.7728 37.2363 12.1471C37.2363 11.5286 37.6132 11.2371 38.0824 11.5073L52.8 20.0035C53.2693 20.2736 53.6461 20.9917 53.6461 21.6174C53.6461 22.236 53.2693 22.5275 52.8 22.2573Z" fill="#EEEEEE"/>
<path d="M46.5646 22.3316L38.0824 17.4329C37.6132 17.1628 37.2363 16.4447 37.2363 15.819C37.2363 15.2005 37.6132 14.909 38.0824 15.1791L46.5646 20.0778C47.0338 20.348 47.4107 21.066 47.4107 21.6917C47.4107 22.3103 47.0338 22.6018 46.5646 22.3316Z" fill="#EEEEEE"/>
<path d="M33.3896 25.1315L29.2871 22.7639C28.7396 22.4511 28.2988 21.605 28.2988 20.8727V16.5358C28.2988 15.8106 28.7396 15.4764 29.2871 15.7892L33.3896 18.1568C33.937 18.4696 34.3778 19.3157 34.3778 20.048V24.385C34.3778 25.1102 33.937 25.4443 33.3896 25.1315Z" fill="#ACACAC"/>
<path d="M52.8 32.1323L38.0824 23.6361C37.6132 23.3659 37.2363 22.6478 37.2363 22.0221C37.2363 21.4036 37.6132 21.1121 38.0824 21.3823L52.8 29.8785C53.2693 30.1486 53.6461 30.8667 53.6461 31.4924C53.6461 32.111 53.2693 32.4025 52.8 32.1323Z" fill="#EEEEEE"/>
<path d="M46.5646 32.2144L38.0824 27.3158C37.6132 27.0456 37.2363 26.3275 37.2363 25.7018C37.2363 25.0833 37.6132 24.7918 38.0824 25.0619L46.5646 29.9606C47.0338 30.2308 47.4107 30.9489 47.4107 31.5745C47.4107 32.1931 47.0338 32.4846 46.5646 32.2144Z" fill="#EEEEEE"/>
<path d="M51.014 49.9244L39.5314 43.298C38.0028 42.4164 36.7656 40.056 36.7656 38.0154C36.7656 35.982 38.0028 35.0435 39.5314 35.9252L51.014 42.5515C52.5426 43.4331 53.7797 45.7936 53.7797 47.8341C53.7797 49.8675 52.5426 50.806 51.014 49.9244Z" fill="#ACACAC" stroke="#1C1C1C" stroke-width="0.5" stroke-linecap="round" stroke-linejoin="round"/>
<path d="M38.9204 51.6381L10.6228 35.2998C9.21502 34.4822 8.07031 32.2995 8.07031 30.4225V16.8783C8.07031 15.0013 9.21502 14.1339 10.6228 14.9444L38.9204 31.2828C40.3282 32.1004 41.4729 34.2831 41.4729 36.1601V49.7043C41.4729 51.5813 40.3282 52.4487 38.9204 51.6381Z" fill="white" stroke="#1C1C1C" stroke-width="0.5" stroke-linecap="round" stroke-linejoin="round"/>
<path d="M15.3453 28.7748L12.8497 27.3386C11.9112 26.7983 11.1504 25.3408 11.1504 24.0824V21.857C11.1504 20.6057 11.9112 20.0298 12.8497 20.5701L15.3453 22.0063C16.2838 22.5466 17.0445 24.0041 17.0445 25.2626V27.488C17.0445 28.7393 16.2838 29.3152 15.3453 28.7748Z" fill="#05CC79"/>
<path opacity="0.64" d="M37.4857 37.225L21.4101 27.9396C20.9053 27.6481 20.5 26.866 20.5 26.1905C20.5 25.5151 20.9124 25.2094 21.4101 25.5009L37.4857 34.7863C37.9905 35.0778 38.3958 35.8599 38.3958 36.5353C38.3958 37.2107 37.9834 37.5165 37.4857 37.225Z" fill="#ACACAC"/>
<path opacity="0.64" d="M36.4754 41.2435L21.4023 32.5411C20.8975 32.2496 20.4922 31.4675 20.4922 30.7921C20.4922 30.1167 20.9046 29.811 21.4023 30.1025L36.4754 38.8049C36.9802 39.0964 37.3854 39.8784 37.3854 40.5539C37.3854 41.2293 36.9731 41.535 36.4754 41.2435Z" fill="#ACACAC"/>
<path opacity="0.64" d="M29.1308 41.6318L21.4023 37.1739C20.8975 36.8824 20.4922 36.1004 20.4922 35.4249C20.4922 34.7495 20.9046 34.4438 21.4023 34.7353L29.1308 39.1931C29.6356 39.4846 30.0409 40.2667 30.0409 40.9421C30.0409 41.6176 29.6285 41.9233 29.1308 41.6318Z" fill="#ACACAC"/>
<path d="M33.6462 56.7405V53.15L31.0084 51.6285C30.8093 50.4483 30.4396 49.2396 29.9277 48.0665L31.8118 46.9929L29.6006 43.175L27.688 44.2699C26.9273 43.2816 26.0741 42.3929 25.164 41.6677V38.5038L22.0356 36.6979V39.9329C21.1611 39.6627 20.3434 39.6058 19.6182 39.7409L17.5919 36.25L14.8332 37.8426C14.8332 37.8426 16.6463 42.3573 16.4614 43.2389L13.5321 41.5468L10.7734 43.1394L13.5321 45.1373L16.4614 46.8294C16.6463 47.9243 15.3878 49.3107 15.8428 50.3985L15.3807 51.2944L17.5919 55.1123L19.732 57.3021C20.4572 58.2762 20.6065 57.3875 21.481 58.1269L22.0356 59.7906L22.4053 63.1891L25.164 61.5965V58.4326C26.0741 58.7597 29.0602 62.3785 29.0602 62.3785L31.8189 60.7859L29.9348 57.5368C30.4467 56.9538 30.8946 58.3473 30.8946 58.3473L33.6533 56.7547L33.6462 56.7405ZM23.7278 54.8066C21.1895 53.342 19.1347 49.7942 19.1347 46.8863C19.1347 45.4999 19.604 44.5116 20.3648 44.0068C21.2037 43.4522 21.5521 44.6609 22.8817 45.4217C25.4199 46.8863 27.2045 49.1259 27.2045 52.0338C27.2045 53.3562 27.8942 54.4653 27.1974 54.9915C26.3585 55.6171 25.1142 55.6029 23.7278 54.8066Z" fill="#05CC79" stroke="#1C1C1C" stroke-width="0.5" stroke-linecap="round" stroke-linejoin="round"/>
<path d="M30.8797 58.3342V54.7438L28.2419 53.2223C28.0428 52.042 27.6731 50.8334 27.1612 49.6602L29.0453 48.5867L26.8341 44.7687L24.9215 45.8636C24.1608 44.8753 23.3076 43.9866 22.3975 43.2614V40.0976L19.2691 38.2917V41.5266C18.3946 41.2565 17.577 41.1996 16.8517 41.3347L14.8254 37.8438L12.6142 39.1093L14.669 42.6571C14.214 43.2259 13.8798 43.9582 13.6949 44.8398L10.7656 43.1477V46.7381L13.6949 48.4303C13.8798 49.5252 14.214 50.6343 14.6619 51.7221L12.6071 52.8952L14.8183 56.7132L16.8446 55.5614C17.5699 56.5354 18.3875 57.4171 19.262 58.1565V61.3914L22.3904 63.1973V60.0335C23.3005 60.3605 24.1537 60.4529 24.9144 60.3463L26.827 63.6523L29.0382 62.3868L27.1541 59.1376C27.666 58.5546 28.0357 57.7797 28.2348 56.834L30.8797 58.3627V58.3342ZM20.9613 56.4003C18.423 54.9357 16.3683 51.3879 16.3683 48.48C16.3683 45.5721 18.423 44.399 20.9613 45.8636C23.4996 47.3282 25.5543 50.876 25.5543 53.7839C25.5543 56.6919 23.4996 57.865 20.9613 56.4003Z" fill="#43D99A" stroke="#1C1C1C" stroke-width="0.5" stroke-linecap="round" stroke-linejoin="round"/>
<path d="M22.3913 40.0775L19.2559 38.2716L22.0216 36.6719L25.15 38.4849L22.3913 40.0775Z" fill="#05CC79" stroke="#1C1C1C" stroke-width="0.5" stroke-linecap="round" stroke-linejoin="round"/>
<path d="M26.834 44.7567L29.5926 43.1641L31.8038 46.982L29.0452 48.5746L26.834 44.7567Z" fill="#05CC79" stroke="#1C1C1C" stroke-width="0.5" stroke-linecap="round" stroke-linejoin="round"/>
<path d="M30.8789 54.7403L33.6447 53.1406V56.7382L30.8789 58.3308V54.7403Z" fill="#05CC79" stroke="#1C1C1C" stroke-width="0.5" stroke-linecap="round" stroke-linejoin="round"/>
<path d="M22.3906 43.241L25.1493 41.6484" stroke="#1C1C1C" stroke-width="0.5" stroke-linecap="round" stroke-linejoin="round"/>
<path d="M16.8379 41.3154L19.2553 39.9219" stroke="#1C1C1C" stroke-width="0.5" stroke-linecap="round" stroke-linejoin="round"/>
<path d="M27.1602 59.1131L29.6984 57.6484" stroke="#1C1C1C" stroke-width="0.5" stroke-linecap="round" stroke-linejoin="round"/>
<path d="M28.2402 53.2098L30.9989 51.6172" stroke="#1C1C1C" stroke-width="0.5" stroke-linecap="round" stroke-linejoin="round"/>
</g>
<defs>
<clipPath id="clip0_0_49">
<rect width="48.6747" height="63" fill="white" transform="translate(7.89258 0.804688)"/>
</clipPath>
</defs>
</svg>
